<svg id="eye-close" width="211" height="211" viewBox="0 0 211 211" fill="none" xmlns="http://www.w3.org/2000/svg">
<rect width="211" height="211" fill="white"/>
<path d="M205.158 102.842C203.739 100.714 169.861 51 105.847 51C41.8328 51 7.9545 100.754 6.53634 102.842L5 105.166L6.53634 107.49C7.9545 109.617 41.8328 159.332 105.847 159.332C169.861 159.332 203.739 109.578 205.158 107.49L206.694 105.166L205.158 102.842ZM105.847 131.646C117 137.646 140.5 126.825 140.5 117.646C140.5 108.467 95.3213 78.1459 104.5 78.1459C90 64.1459 79.8474 93.663 79.8474 102.842C79.8474 112.02 82 127.146 105.847 131.646ZM15.1635 105.166C79.8474 83.6459 43.4085 71.5633 79.8474 62.5029C77 57.6459 11.5 84.7601 11.5 102.842C11.5 120.923 65.5082 139.005 79.8474 147.789C58 126.146 66 118.646 15.1635 105.166ZM131.886 147.789C151.5 150.185 196.53 123.247 196.53 105.166C196.53 87.0843 148 62.5423 131.886 62.5423C168.207 71.6027 190.425 97.2872 196.53 105.166C190.464 113.045 168.325 138.768 131.886 147.789Z" fill="#7B6CF6"/>
<path d="M110.025 175.995H101.674V205.146H110.025V175.995Z" fill="#7B6CF6"/>
<path d="M167.797 158.288L160.565 162.463L175.14 187.708L182.373 183.533L167.797 158.288Z" fill="#7B6CF6"/>
<path d="M43.8895 158.293L29.3169 183.54L36.55 187.715L51.1226 162.467L43.8895 158.293Z" fill="#7B6CF6"/>
</svg>
