<svg width="32" height="32" viewBox="0 0 32 32" fill="none" xmlns="http://www.w3.org/2000/svg">
<g id="aeriform" clip-path="url(#clip0_203_30)">
<rect width="32" height="32" fill="#F7F7F7"/>
<path id="a" d="M13.064 25.504C11.792 25.504 10.652 25.288 9.644 24.856C8.636 24.4 7.832 23.752 7.232 22.912C6.656 22.048 6.368 21.004 6.368 19.78C6.368 18.556 6.656 17.536 7.232 16.72C7.832 15.88 8.648 15.256 9.68 14.848C10.736 14.416 11.936 14.2 13.28 14.2H18.176V13.192C18.176 12.352 17.912 11.668 17.384 11.14C16.856 10.588 16.016 10.312 14.864 10.312C13.736 10.312 12.896 10.576 12.344 11.104C11.792 11.608 11.432 12.268 11.264 13.084L7.088 11.68C7.376 10.768 7.832 9.94 8.456 9.196C9.104 8.428 9.956 7.816 11.012 7.36C12.092 6.88 13.4 6.64 14.936 6.64C17.288 6.64 19.148 7.228 20.516 8.404C21.884 9.58 22.568 11.284 22.568 13.516V20.176C22.568 20.896 22.904 21.256 23.576 21.256H25.016V25H21.992C21.104 25 20.372 24.784 19.796 24.352C19.22 23.92 18.932 23.344 18.932 22.624V22.588H18.248C18.152 22.876 17.936 23.26 17.6 23.74C17.264 24.196 16.736 24.604 16.016 24.964C15.296 25.324 14.312 25.504 13.064 25.504ZM13.856 21.832C15.128 21.832 16.16 21.484 16.952 20.788C17.768 20.068 18.176 19.12 18.176 17.944V17.584H13.604C12.764 17.584 12.104 17.764 11.624 18.124C11.144 18.484 10.904 18.988 10.904 19.636C10.904 20.284 11.156 20.812 11.66 21.22C12.164 21.628 12.896 21.832 13.856 21.832Z" fill="black"/>
</g>
<defs>
<clipPath id="clip0_203_30">
<rect width="32" height="32" fill="white"/>
</clipPath>
</defs>
</svg>
