<svg xmlns="http://www.w3.org/2000/svg" data-name="Layer 1" viewBox="0 0 100 125" x="0px" y="0px"><path d="M58.78,18.8c-.51,24.76-12.23,26.5-12.23,26.5S58.27,47,58.78,71.79C59.29,47,71,45.3,71,45.3S59.29,43.56,58.78,18.8Z"/><path d="M35.28,52.77c-2.81-2.44-3.08-9-3.08-9s-.27,6.59-3.07,9A16.63,16.63,0,0,1,22.54,56a16.73,16.73,0,0,1,6.59,3.26c2.8,2.43,3.07,9,3.07,9s.27-6.6,3.08-9A16.73,16.73,0,0,1,41.87,56,16.63,16.63,0,0,1,35.28,52.77Z"/><path d="M41.12,24.39c-1.91-1.66-2.1-6.16-2.1-6.16s-.18,4.5-2.09,6.16a11.35,11.35,0,0,1-4.49,2.21,11.44,11.44,0,0,1,4.49,2.22C38.84,30.48,39,35,39,35s.19-4.49,2.1-6.15a11.38,11.38,0,0,1,4.49-2.22A11.28,11.28,0,0,1,41.12,24.39Z"/><path d="M75.37,28c-1-.86-1.08-3.17-1.08-3.17s-.1,2.31-1.08,3.17a5.91,5.91,0,0,1-2.31,1.14,5.82,5.82,0,0,1,2.31,1.13c1,.86,1.08,3.17,1.08,3.17s.09-2.31,1.08-3.17a5.82,5.82,0,0,1,2.31-1.13A5.91,5.91,0,0,1,75.37,28Z"/><path d="M49.49,73.32c-1.55-1.34-1.7-5-1.7-5s-.15,3.64-1.69,5a9.23,9.23,0,0,1-3.65,1.8,9.29,9.29,0,0,1,3.65,1.79c1.54,1.35,1.69,5,1.69,5s.15-3.64,1.7-5a9.22,9.22,0,0,1,3.64-1.79A9.16,9.16,0,0,1,49.49,73.32Z"/><text x="0" y="115" fill="#000000" font-size="5px" font-weight="bold" font-family="'Helvetica Neue', Helvetica, Arial-Unicode, Arial, Sans-serif">Created by Langtik</text><text x="0" y="120" fill="#000000" font-size="5px" font-weight="bold" font-family="'Helvetica Neue', Helvetica, Arial-Unicode, Arial, Sans-serif">from the Noun Project</text></svg>