<svg width="166" height="163" fill="none" xmlns="http://www.w3.org/2000/svg">
  <path fill="#F7F7F7" d="M0 0h166v163H0z"/>
  <path fill-rule="evenodd" clip-rule="evenodd" d="M102.367 73s-.884 18.783-3.24 20.87c-2.356 2.385-12.958 2.98-12.075 2.98-.883 0 9.72.597 12.075 2.982 2.356 2.385 3.24 21.168 3.24 21.168s.884-18.783 3.24-21.168c2.356-2.385 12.958-2.981 12.369-2.981.589 0-10.013-.596-12.369-2.981-2.356-2.087-3.24-20.87-3.24-20.87ZM47.367 37s-.883 18.783-3.24 20.87c-2.356 2.385-12.958 2.98-12.075 2.98-.883 0 9.72.597 12.075 2.982C46.483 66.217 47.367 85 47.367 85s.884-18.783 3.24-21.168c2.356-2.385 12.958-2.981 12.37-2.981.588 0-10.014-.596-12.37-2.981C48.25 55.783 47.367 37 47.367 37Z" fill="#7B6CF6"/>
  <path fill-rule="evenodd" clip-rule="evenodd" d="M83.5 41s-.583 12.51-2.04 13.964C79.712 56.709 72.717 57 73.01 57c-.292 0 6.703.29 8.451 2.036C82.917 60.491 83.5 73 83.5 73s.583-12.51 2.331-13.964C87.288 57.291 94.283 57 93.991 57c.292 0-6.703-.29-8.16-2.036C84.083 53.509 83.5 41 83.5 41Z" fill="#5432D3"/>
  <path fill-rule="evenodd" clip-rule="evenodd" d="M73.5 5s-.583 12.51-2.04 13.964C69.712 20.709 62.717 21 63.01 21c-.292 0 6.703.29 8.451 2.036C72.917 24.491 73.5 37 73.5 37s.583-12.51 2.331-13.964C77.288 21.291 84.283 21 83.991 21c.292 0-6.703-.29-8.16-2.036C74.083 17.509 73.5 5 73.5 5Z" fill="#241E92"/>
  <path fill-rule="evenodd" clip-rule="evenodd" d="M74.5 79s-.472 10.164-1.651 11.346C71.433 91.764 65.77 92 66.007 92c-.236 0 5.426.236 6.842 1.654C74.029 94.837 74.5 105 74.5 105s.472-10.164 1.887-11.346C77.567 92.236 83.23 92 82.993 92c.236 0-5.426-.236-6.606-1.654C74.972 89.163 74.5 79 74.5 79Z" fill="#7B6CF6"/>
  <path fill-rule="evenodd" clip-rule="evenodd" d="M88.5 131s-.472 10.164-1.651 11.345C85.433 143.764 79.77 144 80.007 144c-.236 0 5.426.236 6.842 1.655C88.029 146.836 88.5 157 88.5 157s.472-10.164 1.887-11.345c1.18-1.419 6.842-1.655 6.606-1.655.236 0-5.426-.236-6.606-1.655C88.972 141.164 88.5 131 88.5 131Z" fill="#241E92"/>
  <path fill-rule="evenodd" clip-rule="evenodd" d="M101 21s-.389 8.21-1.36 9.164c-1.166 1.145-5.828 1.336-5.634 1.336-.194 0 4.468.19 5.634 1.336C100.611 33.791 101 42 101 42s.389-8.21 1.554-9.164c.972-1.145 5.634-1.336 5.44-1.336.194 0-4.468-.19-5.44-1.336C101.389 29.209 101 21 101 21Z" fill="#7B6CF6"/>
  <path fill-rule="evenodd" clip-rule="evenodd" d="M118 118s-.389 8.209-1.36 9.164c-1.166 1.145-5.828 1.336-5.634 1.336-.194 0 4.468.191 5.634 1.336.971.955 1.36 9.164 1.36 9.164s.389-8.209 1.554-9.164c.972-1.145 5.634-1.336 5.44-1.336.194 0-4.468-.191-5.44-1.336C118.389 126.209 118 118 118 118Z" fill="#5432D3"/>
  <path fill-rule="evenodd" clip-rule="evenodd" d="M60.14 90s-1.117 24.236-4.188 27.336C52.602 120.436 39.2 121 40.038 121c-.838 0 12.563.845 15.914 3.945 3.07 3.1 4.188 27.055 4.188 27.055s1.116-23.955 4.188-27.055c3.07-3.1 16.472-3.945 15.634-3.945.838 0-12.563-.564-15.635-3.664C61.258 114.236 60.14 90 60.14 90Z" fill="#C6A3FF"/>
  <path fill-rule="evenodd" clip-rule="evenodd" d="M35 85s-.555 12.118-2.22 13.81c-1.388 1.408-8.05 1.69-7.772 1.69-.277 0 6.384.564 7.772 1.973C34.445 104.164 35 116 35 116s.555-11.836 1.943-13.527c1.665-1.409 8.326-1.973 8.049-1.973.277 0-6.384-.282-8.05-1.69C35.556 97.117 35 85 35 85Z" fill="#7B6CF6"/>
  <path fill-rule="evenodd" clip-rule="evenodd" d="M121.926 37s-1.106 23.665-3.871 26.417c-3.319 3.302-16.591 3.852-16.038 3.852-.553 0 12.719 1.101 16.038 3.853 2.765 2.752 3.871 26.417 3.871 26.417s1.106-23.665 4.424-26.417c2.765-2.752 16.038-3.853 15.485-3.853.553 0-12.72-.55-15.485-3.852C123.032 60.665 121.926 37 121.926 37Z" fill="#C6A3FF"/>
</svg>
